<?xml version="1.0" encoding="utf-8"?>
<!-- Generator: Adobe Illustrator 25.2.1, SVG Export Plug-In . SVG Version: 6.00 Build 0)  -->
<svg version="1.1" id="Layer_1" xmlns="http://www.w3.org/2000/svg" xmlns:xlink="http://www.w3.org/1999/xlink" x="0px" y="0px"
	 viewBox="0 0 48 48" style="enable-background:new 0 0 48 48;" xml:space="preserve">
<style type="text/css">
	.st0{fill:#FFFFFF;}
</style>
<path class="st0" d="M24,42c-2.2,0-4.3-0.4-6.2-1.2S14,39,12.4,37.7l-3.9,3.9l-2.1-2.1l3.9-3.9C9,34,7.9,32.2,7.2,30.2S6,26.2,6,24
	c0-5,1.8-9.2,5.3-12.8S19,6,24,6h18v18c0,5-1.8,9.2-5.2,12.7S29,42,24,42z M24,39c4.2,0,7.7-1.5,10.6-4.4S39,28.2,39,24V9H24
	c-4.2,0-7.7,1.5-10.6,4.4S9,19.8,9,24s1.5,7.7,4.4,10.6S19.8,39,24,39z M21.4,33.8l10.4-9.2c0.3-0.3,0.4-0.7,0.3-1.1
	c-0.1-0.4-0.4-0.7-0.9-0.7L23,21.9l4.9-6.6c0.1-0.2,0.2-0.3,0.2-0.5c0-0.2-0.1-0.4-0.2-0.5c-0.2-0.2-0.4-0.2-0.6-0.2
	c-0.2,0-0.4,0.1-0.6,0.2l-10.3,9.3c-0.3,0.3-0.4,0.7-0.3,1.1c0.1,0.4,0.4,0.7,0.9,0.7L25,26l-4.9,6.7C20.1,32.9,20,33,20,33.2
	c0,0.2,0.1,0.4,0.2,0.5s0.4,0.2,0.5,0.2C21,34,21.2,33.9,21.4,33.8z M24,24L24,24L24,24L24,24L24,24L24,24L24,24z"/>
</svg>
