<?xml version="1.0" encoding="utf-8"?>
<!-- Generator: Adobe Illustrator 25.2.1, SVG Export Plug-In . SVG Version: 6.00 Build 0)  -->
<svg version="1.1" id="Layer_1" xmlns="http://www.w3.org/2000/svg" xmlns:xlink="http://www.w3.org/1999/xlink" x="0px" y="0px"
	 viewBox="0 0 50 50" style="enable-background:new 0 0 50 50;" xml:space="preserve">
<style type="text/css">
	.st0{fill:#003D94;}
	.st1{fill:none;stroke:#003D94;stroke-width:2;stroke-linecap:round;stroke-miterlimit:10;}
</style>
<g>
	<path class="st0" d="M25,2c12.7,0,23,10.3,23,23S37.7,48,25,48C12.3,48,2,37.7,2,25S12.3,2,25,2 M25,0C11.2,0,0,11.2,0,25
		c0,13.8,11.2,25,25,25c13.8,0,25-11.2,25-25C50,11.2,38.8,0,25,0L25,0z"/>
</g>
<g>
	<line class="st1" x1="15.3" y1="15.3" x2="34.7" y2="34.7"/>
</g>
<g>
	<line class="st1" x1="34.7" y1="15.3" x2="15.3" y2="34.7"/>
</g>
</svg>
