<?xml version="1.0" encoding="utf-8"?>
<!-- Generator: Adobe Illustrator 25.2.1, SVG Export Plug-In . SVG Version: 6.00 Build 0)  -->
<svg version="1.1" id="Layer_1" xmlns="http://www.w3.org/2000/svg" xmlns:xlink="http://www.w3.org/1999/xlink" x="0px" y="0px"
	 viewBox="0 0 48 48" style="enable-background:new 0 0 48 48;" xml:space="preserve">
<style type="text/css">
	.st0{fill:#FFFFFF;}
</style>
<path class="st0" d="M22,30h4v-5h5v-4h-5v-5h-4v5h-5v4h5V30z M24,44c-4.7-1.2-8.5-3.9-11.5-8.1S8,26.9,8,21.9V9.9l16-6l16,6v11.9
	c0,5.1-1.5,9.7-4.5,14S28.7,42.8,24,44z M24,24.5C24,24.5,24,24.5,24,24.5C24,24.5,24,24.5,24,24.5C24,24.5,24,24.5,24,24.5
	C24,24.5,24,24.5,24,24.5z M24,40.8c3.8-1.3,7-3.7,9.4-7.2S37,26.2,37,21.9v-9.8L24,7.2l-13,4.9v9.8c0,4.4,1.2,8.3,3.6,11.8
	S20.2,39.6,24,40.8z"/>
</svg>
