<?xml version="1.0" encoding="utf-8"?>
<!-- Generator: Adobe Illustrator 25.2.1, SVG Export Plug-In . SVG Version: 6.00 Build 0)  -->
<svg version="1.1" id="Layer_1" xmlns="http://www.w3.org/2000/svg" xmlns:xlink="http://www.w3.org/1999/xlink" x="0px" y="0px"
	 viewBox="0 0 48 48" style="enable-background:new 0 0 48 48;" xml:space="preserve">
<style type="text/css">
	.st0{fill:#FFFFFF;}
</style>
<path class="st0" d="M12,30.1h2.5v-4.4h5v4.4H22V17.9h-2.5v5.4h-5v-5.4H12V30.1z M29.8,33.4h2.5v-3.3h2c0.5,0,0.9-0.2,1.2-0.5
	S36,29,36,28.5v-9c0-0.5-0.2-0.9-0.5-1.2c-0.3-0.3-0.7-0.5-1.2-0.5H28c-0.5,0-0.9,0.2-1.4,0.5c-0.4,0.3-0.6,0.7-0.6,1.2v9
	c0,0.5,0.2,0.9,0.6,1.2c0.4,0.3,0.9,0.5,1.4,0.5h1.8V33.4z M28.5,27.6L28.5,27.6L28.5,27.6v-7.3l0,0l0,0h5l0,0l0,0v7.3l0,0l0,0H28.5
	z M7,40c-0.8,0-1.5-0.3-2.1-0.9C4.3,38.5,4,37.8,4,37V11c0-0.8,0.3-1.5,0.9-2.1C5.5,8.3,6.2,8,7,8h34c0.8,0,1.5,0.3,2.1,0.9
	C43.7,9.5,44,10.2,44,11v26c0,0.8-0.3,1.5-0.9,2.1C42.5,39.7,41.8,40,41,40H7z M7,11L7,11L7,11v26l0,0l0,0l0,0l0,0V11L7,11L7,11z
	 M41,37L41,37L41,37V11l0,0l0,0H7l0,0l0,0v26l0,0l0,0H41z"/>
</svg>
