<?xml version="1.0" encoding="utf-8"?>
<!-- Generator: Adobe Illustrator 25.2.1, SVG Export Plug-In . SVG Version: 6.00 Build 0)  -->
<svg version="1.1" xmlns="http://www.w3.org/2000/svg" xmlns:xlink="http://www.w3.org/1999/xlink" x="0px" y="0px"
	 viewBox="0 0 1280 501" style="enable-background:new 0 0 1280 501;" xml:space="preserve">
<style type="text/css">
	.st0{fill:#48AEEF;}
	.st1{fill:none;stroke:#48AEEF;stroke-width:3;stroke-miterlimit:10;}
	.st2{fill:#E60012;}
	.st3{fill:#555555;}
	.st4{font-family:'Montserrat-SemiBold';}
	.st5{font-size:18.7023px;}
	.st6{font-family:'NotoSansKR-Medium-KSCpc-EUC-H';}
	.st7{font-size:14.0267px;}
	.st8{font-family:'NotoSansKR-Regular-KSCpc-EUC-H';}
	.st9{font-size:8.6832px;}
	.st10{fill:none;stroke:#48AEEF;stroke-miterlimit:10;}
	.st11{fill:none;stroke:#48AEEF;stroke-miterlimit:10;stroke-dasharray:5.2857,3.1714;}
	.st12{fill:#878787;}
	.st13{fill:none;stroke:#48AEEF;stroke-miterlimit:10;stroke-dasharray:5.1112,3.0667;}
	.st14{fill:none;stroke:#48AEEF;stroke-miterlimit:10;stroke-dasharray:4.8946,2.9368;}
	.st15{fill:none;stroke:#48AEEF;stroke-miterlimit:10;stroke-dasharray:4.9419,2.9651;}
	.st16{font-size:18.3993px;}
	.st17{font-size:13.7995px;}
	.st18{fill:none;stroke:#48AEEF;stroke-miterlimit:10;stroke-dasharray:4.9295,2.9577;}
</style>
<g id="line">
	<path id="flighticon" class="st0" d="M1049.8,105.9l-5.8-9.7l2.3-0.4l3.9,3.4l12.5-3.3l-9.4-15.9l3.2-0.9l15.8,14.2l12-3.2
		c1-0.3,1.9-0.1,2.7,0.6s1.2,1.5,1.2,2.5c0,0.7-0.2,1.3-0.7,1.9s-1,0.9-1.7,1.1L1049.8,105.9z"/>
	<polyline id="line_1_" class="st1" points="93,378 1049.4,143.7 1285.2,3 	"/>
</g>
<g id="text">
	<g id="y1941_1_">
		<circle id="startdot_11_" class="st2" cx="86.5" cy="380.5" r="6.5"/>
		<text transform="matrix(1 0 0 1 67.394 417.2217)"><tspan x="0" y="0" class="st3 st4 st5">1941</tspan><tspan x="0" y="20" class="st3 st6 st7">조선전선 출범</tspan><tspan x="0" y="34" class="st3 st8 st9">(대한민국 최초의 전선회사)</tspan></text>
	</g>
	<g id="y1970_1_">
		<g id="dash1_18_">
			<g>
				<line class="st10" x1="375.5" y1="308.5" x2="375.5" y2="311"/>
				<line class="st11" x1="375.5" y1="314.2" x2="375.5" y2="363.3"/>
				<line class="st10" x1="375.5" y1="364.9" x2="375.5" y2="367.4"/>
			</g>
		</g>
		<circle id="startdot_10_" class="st12" cx="375.5" cy="372.9" r="6.5"/>
		<text transform="matrix(1 0 0 1 355.394 405.6357)"><tspan x="0" y="0" class="st3 st4 st5">1970</tspan><tspan x="0" y="20" class="st3 st6 st7">도약</tspan><tspan x="25.8" y="20" class="st3 st6 st7">·성장의 가속화</tspan><tspan x="114.4" y="20" class="st3 st6 st7"> </tspan></text>
	</g>
	<g id="y1990_1_">
		<g id="dash1_16_">
			<g>
				<line class="st10" x1="709.5" y1="228.5" x2="709.5" y2="231"/>
				<line class="st13" x1="709.5" y1="234.1" x2="709.5" y2="363.4"/>
				<line class="st10" x1="709.5" y1="364.9" x2="709.5" y2="367.4"/>
			</g>
		</g>
		<circle id="startdot_9_" class="st12" cx="709.5" cy="372.9" r="6.5"/>
		<text transform="matrix(1 0 0 1 689.394 405.6357)"><tspan x="0" y="0" class="st3 st4 st5">1990</tspan><tspan x="0" y="20" class="st3 st6 st7">글로벌 전선기업 선전 </tspan></text>
	</g>
	<g id="y1980_1_">
		<g id="dash1_14_">
			<g>
				<line class="st10" x1="554.5" y1="265.5" x2="554.5" y2="268"/>
				<line class="st14" x1="554.5" y1="270.9" x2="554.5" y2="363.4"/>
				<line class="st10" x1="554.5" y1="364.9" x2="554.5" y2="367.4"/>
			</g>
		</g>
		<circle id="startdot_8_" class="st12" cx="554.5" cy="372.9" r="6.5"/>
		<text transform="matrix(1 0 0 1 535.394 405.6357)"><tspan x="0" y="0" class="st3 st4 st5">1980</tspan><tspan x="0" y="20" class="st3 st6 st7"> </tspan></text>
		<text transform="matrix(1 0 0 1 534.4161 425.3923)" class="st3 st6 st7">설비공장 및</text>
		<text transform="matrix(1 0 0 1 534.4161 443.3923)" class="st3 st6 st7">기술 연구소 출범</text>
	</g>
	<g id="y2000_1_">
		<g id="dash1_12_">
			<g>
				<line class="st10" x1="887.8" y1="187" x2="887.8" y2="189.5"/>
				<line class="st15" x1="887.8" y1="192.5" x2="887.8" y2="364.9"/>
				<line class="st10" x1="887.8" y1="366.4" x2="887.8" y2="368.9"/>
			</g>
		</g>
		<circle id="startdot_7_" class="st12" cx="887.8" cy="374.3" r="6.4"/>
		<text transform="matrix(1 0 0 1 868.0312 406.5225)"><tspan x="0" y="0" class="st3 st4 st16">2000</tspan><tspan x="0" y="19.7" class="st3 st6 st17"> </tspan></text>
		<text transform="matrix(1 0 0 1 867.0693 425.958)" class="st3 st6 st17">변화를 통한</text>
		<text transform="matrix(1 0 0 1 867.0693 443.666)" class="st3 st6 st17">성장기반 구축</text>
	</g>
	<g id="y2010_1_">
		<g id="dash1_3_">
			<g>
				<line class="st10" x1="1041.5" y1="146.5" x2="1041.5" y2="149"/>
				<line class="st18" x1="1041.5" y1="152" x2="1041.5" y2="363.4"/>
				<line class="st10" x1="1041.5" y1="364.9" x2="1041.5" y2="367.4"/>
			</g>
		</g>
		<circle id="startdot_6_" class="st12" cx="1041.5" cy="372.9" r="6.5"/>
		<text transform="matrix(1 0 0 1 1023.394 405.6357)"><tspan x="0" y="0" class="st3 st4 st5">2010 ~</tspan><tspan x="0" y="20" class="st3 st6 st7"> </tspan></text>
		<text transform="matrix(1 0 0 1 1022.4161 425.3923)" class="st3 st6 st7">백년 기업을 향한</text>
		<text transform="matrix(1 0 0 1 1022.4161 443.3923)" class="st3 st6 st7">새로운 출발</text>
	</g>
</g>
</svg>
