<svg version="1.1" xmlns="http://www.w3.org/2000/svg" xmlns:xlink="http://www.w3.org/1999/xlink" x="0px" y="0px"
	 viewBox="0 0 1280 501" style="enable-background:new 0 0 1280 501;" xml:space="preserve">
<g id="line">
	<g id="dash_x5F_top">
		<g>
			<line class="st0" x1="1048.5" y1="138.5" x2="1052.4" y2="136.2"/>
			<line class="st1" x1="1056.6" y1="133.7" x2="1267.5" y2="8.1"/>
			<line class="st0" x1="1269.6" y1="6.8" x2="1273.5" y2="4.5"/>
		</g>
	</g>
	<line id="startline" class="st0" x1="90.5" y1="373.5" x2="1046.5" y2="139.5"/>
	<path id="flighticon" class="st2" d="M1053.8,98.9l-5.8-9.7l2.3-0.4l3.9,3.4l12.5-3.3l-9.4-15.9l3.2-0.9l15.8,14.2l12-3.2
		c1-0.3,1.9-0.1,2.7,0.6s1.2,1.5,1.2,2.5c0,0.7-0.2,1.3-0.7,1.9s-1,0.9-1.7,1.1L1053.8,98.9z"/>
</g>
<g id="text">
	<g id="y1941">
		<circle id="startdot" class="st3" cx="90.5" cy="373.5" r="6.5"/>
		<text transform="matrix(1 0 0 1 71.394 410.2217)"><tspan x="0" y="0" class="st4 st5 st6">1941</tspan><tspan x="0" y="20" class="st4 st7 st8">조선전선 출범</tspan><tspan x="0" y="34" class="st4 st9 st10">(대한민국 최초의 전선회사)</tspan></text>
	</g>
	<g id="y1970">
		<g id="dash1">
			<g>
				<line class="st11" x1="379.5" y1="301.5" x2="379.5" y2="304"/>
				<line class="st12" x1="379.5" y1="307.2" x2="379.5" y2="356.3"/>
				<line class="st11" x1="379.5" y1="357.9" x2="379.5" y2="360.4"/>
			</g>
		</g>
		<circle id="startdot_1_" class="st13" cx="379.5" cy="365.9" r="6.5"/>
		<text transform="matrix(1 0 0 1 359.394 398.6357)"><tspan x="0" y="0" class="st4 st5 st6">1970</tspan><tspan x="0" y="20" class="st4 st7 st8">도약</tspan><tspan x="25.8" y="20" class="st4 st7 st8">·성장의 가속화</tspan><tspan x="114.4" y="20" class="st4 st7 st8"> </tspan></text>
	</g>
	<g id="y1990">
		<g id="dash1_2_">
			<g>
				<line class="st11" x1="713.5" y1="221.5" x2="713.5" y2="224"/>
				<line class="st14" x1="713.5" y1="227.1" x2="713.5" y2="356.4"/>
				<line class="st11" x1="713.5" y1="357.9" x2="713.5" y2="360.4"/>
			</g>
		</g>
		<circle id="startdot_3_" class="st13" cx="713.5" cy="365.9" r="6.5"/>
		<text transform="matrix(1 0 0 1 693.394 398.6357)"><tspan x="0" y="0" class="st4 st5 st6">1990</tspan><tspan x="0" y="20" class="st4 st7 st8">글로벌 전선기업 선전 </tspan></text>
	</g>
	<g id="y1980">
		<g id="dash1_1_">
			<g>
				<line class="st11" x1="558.5" y1="258.5" x2="558.5" y2="261"/>
				<line class="st15" x1="558.5" y1="263.9" x2="558.5" y2="356.4"/>
				<line class="st11" x1="558.5" y1="357.9" x2="558.5" y2="360.4"/>
			</g>
		</g>
		<circle id="startdot_2_" class="st13" cx="558.5" cy="365.9" r="6.5"/>
		<text transform="matrix(1 0 0 1 539.394 398.6357)"><tspan x="0" y="0" class="st4 st5 st6">1980</tspan><tspan x="0" y="20" class="st4 st7 st8"> </tspan></text>
		<text transform="matrix(1 0 0 1 538.4161 418.3923)" class="st4 st7 st8">설비공장 및</text>
		<text transform="matrix(1 0 0 1 538.4161 436.3923)" class="st4 st7 st8">기술 연구소 출범</text>
	</g>
	<g id="y2000">
		<g id="dash1_4_">
			<g>
				<line class="st11" x1="891.8" y1="180" x2="891.8" y2="182.5"/>
				<line class="st16" x1="891.8" y1="185.5" x2="891.8" y2="357.9"/>
				<line class="st11" x1="891.8" y1="359.4" x2="891.8" y2="361.9"/>
			</g>
		</g>
		<circle id="startdot_4_" class="st13" cx="891.8" cy="367.3" r="6.4"/>
		<text transform="matrix(1 0 0 1 872.0312 399.5225)"><tspan x="0" y="0" class="st4 st5 st17">2000</tspan><tspan x="0" y="19.7" class="st4 st7 st18"> </tspan></text>
		<text transform="matrix(1 0 0 1 871.0693 418.958)" class="st4 st7 st18">변화를 통한</text>
		<text transform="matrix(1 0 0 1 871.0693 436.666)" class="st4 st7 st18">성장기반 구축</text>
	</g>
	<g id="y2010">
		<g id="dash1_6_">
			<g>
				<line class="st11" x1="1045.5" y1="139.5" x2="1045.5" y2="142"/>
				<line class="st19" x1="1045.5" y1="145" x2="1045.5" y2="356.4"/>
				<line class="st11" x1="1045.5" y1="357.9" x2="1045.5" y2="360.4"/>
			</g>
		</g>
		<circle id="startdot_5_" class="st13" cx="1045.5" cy="365.9" r="6.5"/>
		<text transform="matrix(1 0 0 1 1027.394 398.6357)"><tspan x="0" y="0" class="st4 st5 st6">2010 ~</tspan><tspan x="0" y="20" class="st4 st7 st8"> </tspan></text>
		<text transform="matrix(1 0 0 1 1026.4161 418.3923)" class="st4 st7 st8">백년 기업을 향한</text>
		<text transform="matrix(1 0 0 1 1026.4161 436.3923)" class="st4 st7 st8">새로운 출발</text>
	</g>
</g>
</svg>
