<?xml version="1.0" encoding="utf-8"?>
<!-- Generator: Adobe Illustrator 25.2.1, SVG Export Plug-In . SVG Version: 6.00 Build 0)  -->
<svg version="1.1" id="Layer_1" xmlns="http://www.w3.org/2000/svg" xmlns:xlink="http://www.w3.org/1999/xlink" x="0px" y="0px"
	 viewBox="0 0 558 146.1" style="enable-background:new 0 0 558 146.1;" xml:space="preserve">
<style type="text/css">
	.st0{fill:#E04862;}
	.st1{fill:#BEBEBE;}
</style>
<g>
	<g>
		<polygon class="st0" points="205.7,41.8 226.1,41.8 226.1,0.2 205.7,11.7 		"/>
		<g>
			<path class="st1" d="M155.9,49.8h-40.3c-9.7,0-17.6,7.9-17.6,17.6V68h53.9c9.4,0,12.7,3.4,12.7,13v6.5h-42.8
				c-16.9,0-29.1,12.3-29.1,29.3c0,17,12.2,29.3,29.1,29.3h34c16.1,0,29.1-13.1,29.1-29.1V78.9C185,62.9,171.9,49.8,155.9,49.8z
				 M164.6,114.9c0,9.6-3.3,13-12.7,13h-26.2c-5.2,0-8.1-0.6-9.9-2.1c-1.9-1.5-2.7-4.3-2.8-8.8c0-8.9,2.6-11.2,12.7-11.2h38.9V114.9
				z"/>
			<path class="st1" d="M418.1,49.8h-40.2c-9.7,0-17.6,7.9-17.6,17.6V68h53.9c9.4,0,12.7,3.4,12.7,13v6.5H384
				c-16.9,0-29.1,12.3-29.1,29.3c0,17,12.2,29.3,29.1,29.3h34c16.1,0,29.1-13.1,29.1-29.1V78.9C447.2,62.9,434.2,49.8,418.1,49.8z
				 M426.9,114.9c0,9.6-3.3,13-12.7,13H388c-5.2,0-8.1-0.6-9.9-2.1c-1.9-1.5-2.7-4.3-2.8-8.8c0-8.9,2.6-11.2,12.7-11.2h38.9V114.9z"
				/>
			<path class="st1" d="M528.8,49.8h-31.8c-16.1,0-29.1,13.1-29.1,29.1v66.5h20.4V81c0-9.6,3.3-13,12.7-13h23.9
				c9.4,0,12.7,3.4,12.7,13v64.4H558V78.9C558,62.9,544.9,49.8,528.8,49.8z"/>
			<path class="st1" d="M307.6,49.8h-40.5V2.5h-20.4v143h20.4V68h36.6c9.4,0,12.7,3.4,12.7,13v64.4h20.4V78.9
				C336.8,62.9,323.7,49.8,307.6,49.8z"/>
			<path class="st1" d="M44,0L23.7,12.3v37.5h-6.1C7.9,49.8,0,57.7,0,67.4V68h23.7v49c0,16.1,13.1,29.1,29.1,29.1h25.1v-18.2H56.7
				c-9.4,0-12.7-3.4-12.7-13V68h33.8V49.8H44V0z"/>
			<polygon class="st1" points="205.7,145.4 226.1,145.4 226.1,45.7 205.7,57.3 			"/>
		</g>
	</g>
</g>
</svg>
